<?xml version="1.0" standalone="no"?>
<!DOCTYPE svg PUBLIC "-//W3C//DTD SVG 20010904//EN"
 "http://www.w3.org/TR/2001/REC-SVG-20010904/DTD/svg10.dtd">
<svg version="1.0" xmlns="http://www.w3.org/2000/svg"
 width="654.000000pt" height="654.000000pt" viewBox="0 0 654.000000 654.000000"
 preserveAspectRatio="xMidYMid meet">

<g transform="translate(0.000000,654.000000) scale(0.100000,-0.100000)"
fill="#000000" stroke="none">
<path d="M3065 6210 c-11 -5 -39 -9 -62 -9 -24 -1 -43 -5 -43 -11 0 -5 -15
-10 -33 -10 -18 0 -37 -4 -42 -8 -6 -5 -40 -21 -77 -36 -38 -16 -68 -32 -68
-37 0 -5 -6 -9 -13 -9 -20 0 -147 -125 -147 -144 0 -9 -4 -16 -8 -16 -11 0
-42 -89 -42 -122 0 -15 -4 -30 -10 -33 -5 -3 -10 -15 -10 -26 0 -21 -22 -49
-37 -49 -26 0 -143 -115 -143 -140 0 -6 -4 -10 -10 -10 -5 0 -10 -8 -10 -18 0
-10 -5 -23 -11 -29 -6 -6 -13 -38 -16 -71 -5 -55 -8 -62 -34 -73 -16 -6 -29
-15 -29 -20 0 -5 -4 -9 -10 -9 -43 0 -319 -243 -370 -326 -8 -13 -18 -24 -22
-24 -5 0 -8 -6 -8 -13 0 -7 -8 -22 -19 -33 -10 -11 -22 -30 -25 -42 -4 -12
-12 -22 -17 -22 -5 0 -9 -9 -9 -19 0 -11 -4 -21 -8 -23 -11 -4 -52 -93 -59
-129 -3 -16 -10 -32 -14 -35 -5 -3 -9 -16 -9 -29 0 -13 -4 -27 -10 -30 -5 -3
-10 -22 -10 -41 0 -19 -4 -34 -9 -34 -5 0 -11 -21 -14 -47 -23 -202 -27 -281
-21 -372 6 -103 1 -129 -37 -203 -11 -21 -12 -131 -2 -142 15 -15 32 -81 23
-90 -6 -6 -10 -48 -10 -95 l0 -85 41 -38 c22 -21 49 -38 59 -38 15 0 18 -11
22 -72 3 -40 9 -81 13 -90 6 -15 2 -18 -23 -18 -17 0 -34 -4 -37 -10 -3 -5
-14 -10 -23 -10 -39 -1 -101 -77 -127 -154 -34 -99 -4 -442 46 -538 5 -10 9
-25 9 -33 0 -8 5 -15 10 -15 6 0 10 -7 10 -15 0 -9 16 -41 35 -71 19 -30 35
-57 35 -61 0 -3 8 -13 18 -22 10 -9 26 -29 35 -44 70 -109 139 -157 229 -157
55 0 77 -16 78 -57 0 -12 4 -32 9 -45 4 -13 17 -50 26 -83 10 -33 22 -64 27
-70 4 -5 8 -22 8 -37 0 -15 5 -28 10 -28 6 0 10 -7 10 -15 0 -8 4 -23 9 -33 5
-9 27 -53 47 -97 21 -44 44 -86 51 -93 7 -7 13 -19 13 -26 0 -6 9 -18 20 -26
11 -8 20 -19 20 -25 0 -5 20 -31 45 -57 25 -27 45 -51 45 -54 0 -8 117 -124
125 -124 3 0 17 -10 30 -23 40 -37 54 -47 65 -47 5 0 10 -4 10 -8 0 -5 17 -17
38 -26 21 -10 52 -28 68 -41 25 -20 27 -25 17 -46 -7 -13 -14 -37 -15 -54 l-3
-30 -98 -1 c-60 0 -102 -5 -109 -12 -7 -7 -31 -12 -55 -12 -24 0 -43 -4 -43
-10 0 -5 -14 -10 -32 -10 -17 0 -45 -4 -62 -9 -54 -16 -180 -41 -208 -41 -15
0 -30 -5 -33 -10 -3 -6 -30 -10 -60 -10 -30 0 -57 -4 -60 -10 -3 -5 -23 -10
-43 -10 -48 0 -122 -29 -167 -65 l-36 -28 25 -24 c14 -12 32 -23 40 -23 8 0
45 -16 83 -35 37 -19 74 -35 81 -35 6 0 12 -4 12 -10 0 -5 5 -10 10 -10 6 0
33 -11 62 -25 28 -14 60 -25 70 -25 10 0 18 -3 18 -7 0 -5 30 -17 66 -28 36
-11 68 -23 70 -27 3 -5 14 -8 25 -8 10 0 27 -4 37 -9 38 -21 131 -46 215 -58
20 -3 37 -9 37 -14 0 -5 14 -9 32 -9 17 0 45 -4 62 -9 53 -16 199 -41 238 -41
20 0 49 -5 65 -11 37 -14 636 -14 717 0 34 6 95 16 136 22 41 6 98 16 125 21
28 5 68 11 90 15 22 3 44 9 49 14 6 5 20 9 32 9 12 0 38 7 57 15 20 8 50 15
66 15 16 0 33 5 36 10 3 6 17 10 31 10 13 0 24 5 24 10 0 6 8 10 17 10 18 0
144 44 175 61 10 5 27 9 38 9 11 0 20 5 20 10 0 6 4 10 10 10 5 0 58 22 116
50 58 27 110 50 115 50 5 0 9 5 9 10 0 6 11 10 25 10 14 0 25 4 25 9 0 5 14
14 31 21 l31 13 -26 24 c-14 12 -30 23 -36 23 -5 0 -10 3 -10 8 0 16 -122 47
-245 62 -172 22 -336 50 -357 61 -10 5 -33 9 -51 9 -18 0 -37 4 -43 9 -5 5
-27 11 -49 14 -22 3 -53 9 -68 12 -17 5 -38 3 -52 -5 -33 -18 -75 9 -75 48 0
15 -3 44 -6 65 -5 30 -4 37 10 37 9 0 16 4 16 8 0 5 17 16 38 25 20 9 50 28
66 42 16 14 33 25 37 25 12 0 219 207 219 219 0 6 3 11 8 11 4 0 21 20 37 45
17 24 33 45 38 45 4 0 7 5 7 10 0 6 11 28 25 50 14 22 25 46 25 55 0 8 5 15
10 15 6 0 10 11 10 25 0 14 5 25 10 25 6 0 10 9 10 20 0 11 5 20 10 20 6 0 10
6 10 14 0 7 7 27 15 42 8 16 15 39 15 51 0 12 5 25 10 28 6 3 10 17 10 31 0
13 5 24 10 24 6 0 10 13 10 29 0 17 5 33 10 36 6 3 10 14 10 23 0 9 5 34 11
55 l10 37 65 0 c51 0 75 6 114 27 27 15 52 34 55 44 3 9 19 31 35 48 17 17 30
33 30 37 0 8 53 78 63 82 4 2 7 10 7 18 0 8 5 14 10 14 6 0 10 7 10 15 0 8 3
15 8 15 4 0 15 21 25 48 10 26 23 55 28 64 5 10 9 29 9 43 0 14 5 25 10 25 6
0 10 15 10 33 0 18 4 37 9 42 5 6 14 67 21 137 9 99 9 143 -1 202 -6 42 -16
76 -20 76 -5 0 -9 7 -9 15 0 9 -8 28 -17 43 -16 24 -25 34 -70 72 -7 5 -19 10
-27 10 -8 0 -18 5 -21 10 -3 6 -20 10 -37 10 -29 0 -30 1 -23 32 4 18 9 59 12
91 3 38 9 57 18 57 28 0 75 36 90 70 19 45 22 79 11 162 -7 54 -5 76 8 108 9
22 16 54 16 70 0 30 -23 111 -40 142 -6 10 -10 111 -10 227 0 129 -4 212 -10
216 -5 3 -10 28 -10 55 0 27 -4 51 -9 54 -5 3 -12 31 -16 61 -3 30 -11 55 -16
55 -5 0 -9 9 -9 20 0 11 -4 28 -9 38 -25 47 -61 130 -61 140 0 7 -4 12 -10 12
-5 0 -10 9 -10 20 0 11 -4 20 -10 20 -5 0 -10 6 -10 13 0 7 -9 19 -20 27 -11
8 -20 20 -20 27 0 7 -11 23 -25 37 -14 14 -25 29 -25 34 0 10 -177 192 -187
192 -5 0 -21 11 -37 25 -16 13 -52 39 -80 57 -66 42 -79 55 -99 100 -18 38
-80 106 -121 133 -20 13 -24 27 -30 91 -9 98 -15 112 -75 172 -35 35 -51 59
-51 77 0 14 -3 25 -8 25 -4 0 -13 15 -21 33 -16 37 -129 157 -149 157 -7 0
-22 9 -34 20 -12 11 -27 20 -34 20 -6 0 -37 11 -68 25 -31 14 -67 25 -79 25
-13 0 -27 4 -33 9 -5 5 -29 12 -54 16 -71 11 -433 15 -455 5z m580 -2208 c154
-22 225 -36 225 -44 0 -4 16 -8 35 -8 19 0 35 -4 35 -10 0 -5 11 -10 25 -10
14 0 33 -4 43 -9 20 -11 136 -50 170 -58 12 -3 22 -8 22 -12 0 -4 23 -15 50
-26 28 -11 50 -23 50 -27 0 -4 9 -8 20 -8 11 0 20 -3 20 -7 0 -5 19 -17 43
-28 23 -11 49 -28 58 -37 9 -10 20 -18 23 -18 4 0 13 -6 20 -12 8 -7 23 -20
35 -28 11 -8 21 -23 21 -34 0 -27 29 -147 40 -168 6 -10 10 -27 10 -37 0 -11
4 -22 8 -25 15 -9 34 -325 28 -456 -8 -172 -16 -253 -27 -265 -5 -5 -9 -24 -9
-41 0 -18 -4 -35 -9 -38 -5 -3 -11 -20 -14 -38 -13 -77 -33 -157 -39 -164 -5
-4 -8 -24 -8 -45 0 -21 -4 -41 -10 -44 -5 -3 -10 -24 -10 -45 0 -21 -4 -41 -9
-44 -5 -3 -11 -23 -14 -43 -8 -58 -27 -136 -37 -155 -6 -10 -10 -29 -10 -43 0
-14 -4 -25 -10 -25 -5 0 -10 -11 -10 -24 0 -14 -5 -28 -10 -31 -5 -3 -10 -14
-10 -24 0 -10 -7 -32 -15 -47 -8 -16 -15 -37 -15 -46 0 -10 -4 -18 -10 -18 -5
0 -10 -9 -10 -20 0 -11 -4 -20 -10 -20 -5 0 -10 -6 -10 -12 0 -18 -52 -119
-72 -142 -10 -11 -18 -23 -18 -28 0 -4 -12 -20 -27 -36 -16 -17 -46 -51 -68
-78 -22 -26 -46 -53 -53 -58 -7 -6 -23 -20 -35 -32 -13 -11 -35 -28 -49 -38
-25 -16 -25 -16 -21 9 3 14 9 25 14 25 5 0 9 12 9 28 1 25 1 26 15 8 14 -18
15 -17 26 10 6 16 15 37 20 46 5 10 9 34 9 53 0 19 5 35 10 35 15 0 13 173 -2
188 -6 6 -9 15 -5 18 4 4 16 -4 28 -17 l22 -24 -6 80 c-3 57 -12 93 -28 125
-29 54 -90 120 -113 120 -9 0 -16 5 -16 10 0 6 -11 10 -25 10 -14 0 -25 5 -25
11 0 17 -289 -1 -335 -21 -73 -31 -547 -31 -620 0 -47 21 -322 37 -338 21 -6
-6 -21 -11 -34 -11 -13 0 -23 -4 -23 -10 0 -5 -5 -10 -10 -10 -24 0 -87 -67
-102 -107 -7 -18 -16 -33 -20 -33 -4 0 -8 -16 -8 -35 0 -19 -4 -35 -10 -35
-11 0 -14 -93 -4 -103 4 -4 14 2 23 12 15 17 16 10 16 -93 0 -90 5 -125 24
-183 22 -67 41 -94 41 -58 0 31 15 13 30 -34 12 -38 13 -48 3 -44 -7 3 -13 9
-13 14 0 5 -6 9 -12 9 -14 0 -98 85 -163 164 -22 26 -45 53 -51 60 -6 6 -23
34 -38 61 -15 28 -32 54 -37 59 -5 6 -9 18 -9 28 0 10 -4 18 -9 18 -5 0 -12
16 -15 35 -4 19 -11 35 -16 35 -6 0 -10 11 -10 25 0 14 -4 25 -8 25 -4 0 -14
21 -21 48 -8 26 -17 52 -21 57 -7 9 -24 74 -37 138 -3 15 -9 27 -14 27 -5 0
-9 20 -9 45 0 25 -4 45 -8 45 -8 0 -14 30 -38 193 -4 20 -10 40 -15 43 -5 3
-9 20 -9 39 0 19 -4 37 -10 40 -5 3 -10 19 -10 34 0 15 -3 31 -7 35 -15 15
-34 184 -42 376 -12 297 3 520 40 592 5 10 9 31 9 48 0 16 5 30 10 30 6 0 10
7 10 16 0 15 37 53 53 54 4 0 21 14 39 30 17 17 34 30 39 30 4 0 14 6 21 13
28 25 183 107 203 107 8 0 15 3 17 8 4 9 159 62 182 62 9 0 16 4 16 9 0 5 17
11 38 14 20 3 73 13 117 22 44 9 115 19 157 23 42 4 80 11 84 15 11 11 604 1
689 -11z m-1925 -873 c0 -11 4 -28 9 -37 4 -9 11 -32 15 -51 6 -33 6 -34 -11
-14 -10 11 -33 28 -50 38 -27 16 -35 17 -45 6 -11 -10 -9 -14 6 -23 29 -16 96
-89 96 -104 0 -8 -4 -22 -9 -32 -42 -82 -54 -166 -36 -237 9 -34 33 -61 43
-50 4 4 1 10 -5 12 -16 6 -18 163 -3 163 6 0 10 9 10 21 0 48 41 80 53 42 4
-10 13 -36 21 -58 9 -22 18 -69 21 -105 7 -79 25 -172 37 -184 4 -6 8 -20 8
-33 0 -13 5 -23 10 -23 6 0 10 -18 10 -40 0 -39 -1 -40 -34 -40 -24 0 -43 9
-67 31 -46 43 -50 17 -5 -27 31 -30 42 -35 76 -33 21 2 42 1 45 -3 3 -3 10
-30 16 -59 5 -30 13 -66 16 -81 6 -32 4 -33 -60 -13 -42 13 -107 63 -107 84 0
3 -10 18 -23 33 -12 14 -29 35 -38 46 -25 30 -89 142 -89 156 0 6 -4 16 -9 22
-19 20 -43 120 -62 259 -18 127 -12 197 24 278 23 53 54 76 105 77 26 0 32 -4
32 -21z m3203 -3 c15 -13 27 -28 27 -35 0 -6 4 -11 8 -11 12 0 32 -107 32
-169 0 -73 -21 -244 -31 -255 -5 -6 -9 -22 -9 -37 0 -15 -4 -31 -10 -34 -5 -3
-10 -17 -10 -31 0 -13 -4 -24 -10 -24 -5 0 -12 -16 -16 -35 -3 -19 -10 -35
-15 -35 -5 0 -9 -7 -9 -15 0 -8 -4 -15 -10 -15 -5 0 -10 -4 -10 -10 0 -5 -15
-30 -32 -54 -18 -24 -42 -56 -53 -71 -42 -59 -72 -83 -119 -99 -27 -9 -53 -16
-58 -16 -12 0 -10 88 2 95 6 3 10 26 10 50 l0 44 33 -14 c49 -20 104 8 140 73
10 17 16 32 13 32 -2 0 -23 -18 -46 -40 -40 -39 -68 -48 -104 -34 -18 7 -22
39 -6 49 6 3 10 19 10 34 0 16 7 34 15 41 8 7 15 25 15 41 0 15 5 31 10 34 6
3 10 39 10 80 0 41 5 77 10 80 6 3 10 16 10 29 0 12 7 31 15 42 8 10 15 26 15
35 0 9 7 20 16 23 28 11 49 -58 49 -160 0 -99 11 -106 35 -21 15 54 4 122 -32
203 -18 42 -18 47 -3 70 19 30 75 84 86 84 5 0 6 7 3 15 -8 20 -15 19 -58 -10
l-37 -25 6 47 c4 27 8 54 10 61 7 21 68 14 98 -12z m-2098 -1257 c5 -5 30 -9
55 -9 25 0 50 -4 55 -9 11 -10 34 -13 218 -32 93 -10 144 -10 240 0 196 20
212 22 222 32 5 5 26 9 48 9 21 0 46 4 55 9 9 4 45 11 80 15 56 5 62 4 48 -9
-8 -8 -19 -15 -25 -15 -6 0 -19 -4 -29 -9 -60 -31 -286 -56 -512 -56 -175 1
-322 15 -465 45 -27 6 -62 13 -77 17 -16 3 -28 9 -28 14 0 19 -73 9 -91 -13
-22 -24 -13 -42 26 -52 14 -4 25 -13 25 -21 0 -8 4 -15 8 -15 4 0 16 -14 26
-32 18 -30 31 -47 66 -87 35 -40 158 -111 192 -111 10 0 18 -4 18 -8 0 -33
405 -51 520 -24 176 42 309 137 375 269 9 17 27 34 41 37 14 4 29 17 34 29 6
16 9 1 9 -53 1 -69 -21 -166 -42 -187 -4 -3 -7 -14 -7 -24 0 -9 -3 -19 -7 -21
-5 -1 -21 -21 -38 -43 -60 -80 -87 -109 -129 -140 -16 -11 -34 -26 -41 -32 -8
-7 -18 -13 -24 -13 -6 0 -11 -3 -11 -8 0 -14 -80 -32 -146 -32 -62 0 -68 2
-95 33 -16 17 -29 35 -29 39 0 3 18 9 40 13 94 16 40 25 -145 24 -107 -1 -195
-3 -195 -6 0 -2 17 -11 38 -20 20 -9 31 -18 25 -20 -7 -3 -13 -11 -13 -18 0
-28 -48 -45 -125 -45 -43 0 -75 4 -75 10 0 6 -11 10 -25 10 -14 0 -25 5 -25
10 0 6 -5 10 -12 10 -14 0 -104 73 -138 113 -14 16 -35 41 -48 56 -33 39 -83
145 -97 206 -24 106 -17 160 25 178 21 9 193 -3 205 -14z m1 -88 c10 -10 12
-10 254 -35 133 -14 182 -15 345 -5 105 6 200 15 213 20 13 5 43 9 68 9 24 0
44 5 44 10 0 6 14 10 30 10 40 0 38 -12 -10 -61 -22 -23 -40 -45 -40 -49 0 -3
-11 -13 -25 -20 -14 -7 -25 -17 -25 -22 0 -4 -9 -8 -20 -8 -11 0 -20 -4 -20
-8 0 -8 -59 -30 -135 -50 -52 -14 -155 -25 -230 -25 -111 0 -297 32 -320 54
-5 5 -17 9 -27 9 -10 0 -18 5 -18 10 0 6 -6 10 -12 10 -17 0 -68 44 -68 59 0
6 -3 11 -7 11 -13 0 -63 47 -63 59 0 6 -4 11 -10 11 -5 0 -10 5 -10 10 0 12
73 13 86 1z m491 -428 c-20 -2 -52 -2 -70 0 -17 2 0 4 38 4 39 0 53 -2 32 -4z
m-537 -333 c0 -5 7 -10 15 -10 8 0 15 -4 15 -10 0 -5 9 -10 20 -10 11 0 20 -4
20 -10 0 -5 11 -12 25 -16 14 -3 25 -10 25 -15 0 -5 9 -9 20 -9 11 0 20 -4 20
-10 0 -5 13 -10 28 -10 15 0 34 -6 41 -12 9 -10 74 -13 256 -13 182 0 247 3
257 13 6 6 24 12 39 12 15 0 31 5 34 10 3 6 15 10 26 10 10 0 19 4 19 9 0 5
10 13 22 17 12 3 31 15 42 25 11 11 26 19 33 19 7 0 13 5 13 10 0 6 6 10 14
10 13 0 19 -17 32 -97 5 -26 15 -36 60 -59 48 -24 72 -54 44 -54 -5 0 -10 -6
-10 -12 0 -11 -13 -29 -60 -85 -5 -7 -10 -15 -10 -18 0 -5 -80 -85 -86 -85 -2
0 -28 -16 -58 -35 -30 -19 -60 -35 -66 -35 -5 0 -18 -4 -28 -9 -57 -30 -114
-36 -336 -36 -175 0 -230 3 -234 13 -2 6 -12 12 -23 12 -10 0 -35 10 -56 22
-21 12 -49 27 -63 34 -29 15 -140 120 -140 133 0 4 -12 21 -27 38 -36 37 -64
88 -56 97 4 4 27 15 50 26 37 16 43 23 43 49 0 17 5 31 10 31 6 0 10 16 10 35
0 19 5 35 10 35 6 0 10 -4 10 -10z"/>
<path d="M2500 3661 c-8 -6 -27 -11 -42 -11 -15 0 -30 -4 -33 -10 -3 -5 -15
-10 -26 -10 -10 0 -19 -3 -19 -7 0 -5 -20 -16 -45 -26 -25 -11 -45 -23 -45
-28 0 -5 -5 -9 -11 -9 -14 0 -128 -111 -129 -124 0 -5 -10 -17 -22 -28 -15
-13 -18 -22 -11 -29 7 -7 18 -3 35 14 13 13 43 32 66 42 23 10 42 22 42 27 0
4 7 8 15 8 15 0 25 4 71 28 12 6 57 18 100 27 86 18 171 15 299 -11 39 -8 87
-17 108 -21 20 -3 37 -9 37 -13 0 -10 53 -21 110 -23 40 -2 45 0 48 22 2 13
-1 28 -7 34 -6 6 -11 19 -11 28 0 10 -21 27 -57 44 -32 16 -66 32 -75 37 -10
4 -26 8 -36 8 -10 0 -22 4 -27 9 -22 20 -310 39 -335 22z"/>
<path d="M3815 3660 c-11 -5 -39 -9 -62 -9 -23 -1 -45 -5 -48 -11 -3 -5 -15
-10 -26 -10 -10 0 -27 -4 -37 -9 -9 -5 -38 -18 -64 -30 -58 -27 -78 -53 -78
-103 0 -49 20 -52 120 -18 167 55 358 80 456 60 103 -21 252 -80 262 -102 2
-5 8 -8 13 -8 6 0 21 -11 35 -25 28 -28 44 -32 44 -10 0 8 -4 15 -9 15 -5 0
-12 8 -16 19 -8 25 -123 141 -141 141 -8 0 -14 4 -14 9 0 5 -20 17 -45 28 -25
10 -45 21 -45 26 0 4 -11 7 -25 7 -14 0 -25 4 -25 9 0 5 -17 12 -37 16 -61 11
-236 15 -258 5z"/>
<path d="M2495 3212 c-60 -8 -135 -26 -135 -31 0 -3 -15 -13 -32 -20 -43 -19
-150 -127 -169 -168 -7 -18 -17 -33 -21 -33 -31 0 49 -127 95 -151 12 -7 25
-16 28 -22 4 -5 96 -9 232 -8 146 1 228 -2 232 -9 9 -14 161 -13 187 3 12 6
38 27 58 44 19 18 41 33 48 33 13 0 18 86 5 92 -5 2 -20 28 -35 58 -16 30 -46
74 -69 98 -37 38 -57 50 -134 82 -50 21 -229 41 -290 32z m-5 -99 c-33 -23
-49 -44 -50 -65 0 -10 -4 -18 -10 -18 -5 0 -10 -25 -10 -55 0 -30 5 -55 10
-55 6 0 10 -9 10 -21 0 -22 10 -35 48 -60 21 -15 19 -16 -58 -23 -92 -7 -152
4 -184 37 -26 27 -50 78 -39 86 4 3 15 20 23 36 18 37 87 105 106 105 8 0 14
5 14 10 0 6 9 10 20 10 11 0 20 4 20 9 0 10 32 17 90 20 l34 1 -24 -17z m288
-5 c2 -4 10 -8 18 -8 8 0 14 -4 14 -10 0 -5 7 -10 16 -10 18 0 94 -72 94 -89
0 -6 5 -11 10 -11 6 0 10 -9 10 -20 0 -11 5 -20 10 -20 6 0 10 -14 10 -30 0
-42 -35 -74 -102 -94 -47 -13 -65 -14 -108 -4 l-52 12 29 26 c42 38 53 64 53
125 0 69 -16 100 -70 138 l-25 18 45 -7 c25 -4 47 -11 48 -16z m-198 2 c0 -5
9 -10 20 -10 16 0 20 -7 20 -32 0 -35 -5 -45 -32 -66 -15 -12 -22 -12 -48 -1
-27 12 -30 19 -30 56 0 32 4 43 15 43 8 0 15 5 15 10 0 6 9 10 20 10 11 0 20
-4 20 -10z m58 -287 c-21 -2 -55 -2 -75 0 -21 2 -4 4 37 4 41 0 58 -2 38 -4z"/>
<path d="M3915 3209 c-105 -9 -165 -20 -165 -30 0 -5 -7 -9 -15 -9 -42 0 -169
-116 -181 -166 -3 -13 -10 -24 -15 -24 -5 0 -9 -9 -9 -20 0 -11 -4 -20 -9 -20
-11 0 -22 -55 -15 -75 4 -8 13 -15 21 -15 8 0 29 -16 47 -35 19 -19 41 -35 50
-35 9 0 16 -4 16 -10 0 -13 167 -13 175 0 4 7 87 10 236 9 l230 -2 60 63 c57
61 81 105 63 119 -5 3 -18 23 -28 43 -10 21 -39 57 -62 80 -59 58 -64 62 -101
78 -18 8 -33 18 -33 21 0 7 -92 27 -145 31 -22 2 -76 0 -120 -3z m-75 -86
c-20 -8 -33 -23 -52 -58 -32 -60 -40 -92 -29 -113 6 -12 11 -29 11 -39 0 -11
15 -35 33 -55 l33 -36 -48 -11 c-67 -15 -148 6 -188 50 -22 22 -27 35 -21 47
5 10 17 35 27 57 20 44 88 115 110 115 8 0 14 4 14 9 0 5 10 12 23 16 58 20
130 35 87 18z m341 -26 c64 -37 105 -75 125 -117 10 -22 22 -40 27 -40 4 0 7
-7 7 -15 0 -8 -4 -15 -10 -15 -5 0 -10 -7 -10 -15 0 -26 -43 -63 -85 -73 -24
-6 -103 -7 -200 -3 -116 6 -136 8 -73 9 96 2 105 7 138 73 36 70 21 142 -44
203 l-31 29 59 -7 c32 -4 76 -17 97 -29z m-248 7 c36 -13 34 -79 -4 -102 -17
-11 -26 -11 -50 0 -33 15 -44 38 -35 74 4 15 14 24 26 24 11 0 20 5 20 11 0 6
6 8 13 5 6 -3 20 -9 30 -12z"/>
<path d="M3437 2985 c-16 -35 -18 -57 -13 -175 8 -169 15 -240 27 -240 5 0 9
-11 9 -25 0 -14 6 -25 13 -25 11 0 13 17 10 78 -2 42 -9 86 -14 97 -5 11 -10
90 -11 175 l-3 155 -18 -40z"/>
<path d="M2960 2276 c0 -8 -6 -16 -12 -19 -9 -2 -13 -25 -13 -65 1 -50 5 -65
22 -82 23 -21 87 -28 98 -10 14 23 62 10 101 -29 22 -21 54 -46 71 -55 36 -18
73 -21 73 -6 0 6 6 10 13 10 6 0 35 21 62 46 44 39 54 45 83 40 17 -3 48 -9
67 -12 25 -4 39 -2 51 10 25 26 37 92 23 135 -19 61 -26 56 -25 -19 1 -83 -8
-94 -69 -83 -60 11 -101 8 -119 -8 -8 -8 -21 -19 -28 -24 -7 -6 -28 -22 -46
-38 -19 -15 -39 -27 -45 -27 -7 0 -32 19 -57 41 -68 62 -100 73 -167 58 -51
-12 -57 -11 -70 7 -11 14 -13 36 -10 82 3 34 3 62 1 62 -2 0 -4 -6 -4 -14z"/>
</g>
</svg>
